<svg xmlns="http://www.w3.org/2000/svg" viewBox="0 0 1200 675" role="img" aria-label="Hackathon placeholder image three">
  <defs>
    <linearGradient id="bg3" x1="0" y1="0" x2="1" y2="1">
      <stop offset="0%" stop-color="#f3f4f6" />
      <stop offset="100%" stop-color="#d4d4d8" />
    </linearGradient>
    <linearGradient id="accent3" x1="0" y1="0" x2="1" y2="1">
      <stop offset="0%" stop-color="#52525b" />
      <stop offset="100%" stop-color="#71717a" />
    </linearGradient>
  </defs>

  <rect width="1200" height="675" fill="url(#bg3)" />
  <rect width="1200" height="675" fill="#18181b" opacity="0.1" />

  <rect x="110" y="110" width="980" height="455" rx="34" fill="#ffffff" fill-opacity="0.56" stroke="#a1a1aa" stroke-opacity="0.45" />

  <rect x="620" y="130" width="315" height="36" rx="18" fill="url(#accent3)" opacity="0.9" />
  <text x="695" y="154" fill="#ffffff" font-size="16" font-weight="700" font-family="Segoe UI, Arial, sans-serif">Collaboration Map</text>
  <text x="625" y="188" fill="#52525b" font-size="14" font-family="Segoe UI, Arial, sans-serif">Member roles, sync notes, and stage context</text>

  <rect x="170" y="170" width="420" height="300" rx="28" fill="#27272a" opacity="0.12" />
  <rect x="610" y="170" width="420" height="180" rx="28" fill="#27272a" opacity="0.09" />
  <rect x="610" y="370" width="420" height="100" rx="28" fill="#27272a" opacity="0.09" />

  <g>
    <circle cx="250" cy="260" r="28" fill="#fafafa" opacity="0.84" />
    <circle cx="510" cy="260" r="28" fill="#fafafa" opacity="0.84" />
    <circle cx="380" cy="355" r="34" fill="#fafafa" opacity="0.84" />

    <line x1="278" y1="260" x2="482" y2="260" stroke="#52525b" stroke-opacity="0.55" stroke-width="8" stroke-linecap="round" />
    <line x1="274" y1="276" x2="356" y2="331" stroke="#52525b" stroke-opacity="0.55" stroke-width="8" stroke-linecap="round" />
    <line x1="486" y1="276" x2="404" y2="331" stroke="#52525b" stroke-opacity="0.55" stroke-width="8" stroke-linecap="round" />
  </g>

  <rect x="655" y="220" width="260" height="22" rx="11" fill="#3f3f46" opacity="0.35" />
  <rect x="655" y="260" width="320" height="14" rx="7" fill="#71717a" opacity="0.42" />
  <rect x="655" y="288" width="240" height="14" rx="7" fill="#71717a" opacity="0.26" />

  <text x="662" y="246" fill="#3f3f46" fill-opacity="0.65" font-size="13" font-weight="600" font-family="Segoe UI, Arial, sans-serif">Team Pulse Board</text>

  <rect x="655" y="404" width="170" height="14" rx="7" fill="#71717a" opacity="0.42" />
  <rect x="655" y="432" width="290" height="14" rx="7" fill="#71717a" opacity="0.26" />
  <text x="860" y="610" fill="#52525b" fill-opacity="0.55" font-size="14" font-family="Segoe UI, Arial, sans-serif">HackDekh Placeholder</text>
</svg>
